<svg width="100%" height="100%" viewBox="0 0 172 60" version="1.1" xmlns="http://www.w3.org/2000/svg" xmlns:xlink="http://www.w3.org/1999/xlink" xml:space="preserve" style="fill-rule:evenodd;clip-rule:evenodd;stroke-linejoin:round;stroke-miterlimit:2;">
    <g id="background" transform="matrix(1.02994,0,0,1.09091,-4.11976,-4.36364)" style="fill:rgb(0, 0, 0);stroke:none;color:rgb(251, 251, 254);stroke-width:1px;stroke-linecap:butt;stroke-linejoin:round;opacity:1;font-family:&quot;Anthropic Sans&quot;, -apple-system, BlinkMacSystemFont, &quot;Segoe UI&quot;, sans-serif;font-size:16px;font-weight:400;text-anchor:start;dominant-baseline:auto">
        <path d="M171,6.75C171,5.232 169.695,4 168.087,4L6.913,4C5.305,4 4,5.232 4,6.75L4,56.25C4,57.768 5.305,59 6.913,59L168.087,59C169.695,59 171,57.768 171,56.25L171,6.75Z" style="fill:white;stroke:rgb(200,200,200);stroke-width:0.5px;;fill:rgb(255, 255, 255);stroke:rgb(200, 200, 200);color:rgb(251, 251, 254);stroke-width:0.5px;stroke-linecap:butt;stroke-linejoin:round;opacity:1;font-family:&quot;Anthropic Sans&quot;, -apple-system, BlinkMacSystemFont, &quot;Segoe UI&quot;, sans-serif;font-size:16px;font-weight:400;text-anchor:start;dominant-baseline:auto"/>
    </g>
    <g id="add-on" transform="matrix(1.03912,0,0,1.06245,-1.85987,-7.58422)" style="fill:rgb(0, 0, 0);stroke:none;color:rgb(251, 251, 254);stroke-width:1px;stroke-linecap:butt;stroke-linejoin:round;opacity:1;font-family:&quot;Anthropic Sans&quot;, -apple-system, BlinkMacSystemFont, &quot;Segoe UI&quot;, sans-serif;font-size:16px;font-weight:400;text-anchor:start;dominant-baseline:auto">
        <g transform="matrix(20.9407,0,0,20.9407,68,49)" style="fill:rgb(0, 0, 0);stroke:none;color:rgb(251, 251, 254);stroke-width:1px;stroke-linecap:butt;stroke-linejoin:round;opacity:1;font-family:&quot;Anthropic Sans&quot;, -apple-system, BlinkMacSystemFont, &quot;Segoe UI&quot;, sans-serif;font-size:16px;font-weight:400;text-anchor:start;dominant-baseline:auto">
            <path d="M0.584,0L0.536,-0.118L0.238,-0.118L0.19,0L0.025,0L0.304,-0.687L0.47,-0.687L0.749,0L0.584,0ZM0.285,-0.233L0.489,-0.233L0.387,-0.483L0.285,-0.233Z" style="fill:rgb(16,154,214);fill-rule:nonzero;;fill:rgb(16, 154, 214);stroke:none;color:rgb(251, 251, 254);stroke-width:1px;stroke-linecap:butt;stroke-linejoin:round;opacity:1;font-family:&quot;Anthropic Sans&quot;, -apple-system, BlinkMacSystemFont, &quot;Segoe UI&quot;, sans-serif;font-size:16px;font-weight:400;text-anchor:start;dominant-baseline:auto"/>
        </g>
        <g transform="matrix(20.9407,0,0,20.9407,83.7893,49)" style="fill:rgb(0, 0, 0);stroke:none;color:rgb(251, 251, 254);stroke-width:1px;stroke-linecap:butt;stroke-linejoin:round;opacity:1;font-family:&quot;Anthropic Sans&quot;, -apple-system, BlinkMacSystemFont, &quot;Segoe UI&quot;, sans-serif;font-size:16px;font-weight:400;text-anchor:start;dominant-baseline:auto">
            <path d="M0.317,-0.687C0.393,-0.687 0.461,-0.672 0.521,-0.643C0.581,-0.614 0.628,-0.573 0.662,-0.521C0.695,-0.469 0.712,-0.41 0.712,-0.344C0.712,-0.278 0.695,-0.219 0.662,-0.167C0.628,-0.114 0.581,-0.073 0.521,-0.044C0.461,-0.015 0.393,0 0.317,0L0.071,0L0.071,-0.687L0.317,-0.687ZM0.336,-0.134C0.379,-0.134 0.418,-0.143 0.452,-0.161C0.486,-0.179 0.513,-0.204 0.532,-0.236C0.551,-0.267 0.56,-0.303 0.56,-0.344C0.56,-0.384 0.551,-0.42 0.532,-0.452C0.513,-0.484 0.486,-0.509 0.452,-0.527C0.418,-0.544 0.379,-0.553 0.336,-0.553L0.218,-0.553L0.218,-0.134L0.336,-0.134Z" style="fill:rgb(16,154,214);fill-rule:nonzero;;fill:rgb(16, 154, 214);stroke:none;color:rgb(251, 251, 254);stroke-width:1px;stroke-linecap:butt;stroke-linejoin:round;opacity:1;font-family:&quot;Anthropic Sans&quot;, -apple-system, BlinkMacSystemFont, &quot;Segoe UI&quot;, sans-serif;font-size:16px;font-weight:400;text-anchor:start;dominant-baseline:auto"/>
        </g>
        <g transform="matrix(20.9407,0,0,20.9407,99.0341,49)" style="fill:rgb(0, 0, 0);stroke:none;color:rgb(251, 251, 254);stroke-width:1px;stroke-linecap:butt;stroke-linejoin:round;opacity:1;font-family:&quot;Anthropic Sans&quot;, -apple-system, BlinkMacSystemFont, &quot;Segoe UI&quot;, sans-serif;font-size:16px;font-weight:400;text-anchor:start;dominant-baseline:auto">
            <path d="M0.317,-0.687C0.393,-0.687 0.461,-0.672 0.521,-0.643C0.581,-0.614 0.628,-0.573 0.662,-0.521C0.695,-0.469 0.712,-0.41 0.712,-0.344C0.712,-0.278 0.695,-0.219 0.662,-0.167C0.628,-0.114 0.581,-0.073 0.521,-0.044C0.461,-0.015 0.393,0 0.317,0L0.071,0L0.071,-0.687L0.317,-0.687ZM0.336,-0.134C0.379,-0.134 0.418,-0.143 0.452,-0.161C0.486,-0.179 0.513,-0.204 0.532,-0.236C0.551,-0.267 0.56,-0.303 0.56,-0.344C0.56,-0.384 0.551,-0.42 0.532,-0.452C0.513,-0.484 0.486,-0.509 0.452,-0.527C0.418,-0.544 0.379,-0.553 0.336,-0.553L0.218,-0.553L0.218,-0.134L0.336,-0.134Z" style="fill:rgb(16,154,214);fill-rule:nonzero;;fill:rgb(16, 154, 214);stroke:none;color:rgb(251, 251, 254);stroke-width:1px;stroke-linecap:butt;stroke-linejoin:round;opacity:1;font-family:&quot;Anthropic Sans&quot;, -apple-system, BlinkMacSystemFont, &quot;Segoe UI&quot;, sans-serif;font-size:16px;font-weight:400;text-anchor:start;dominant-baseline:auto"/>
        </g>
        <g transform="matrix(20.9407,0,0,20.9407,114.279,49)" style="fill:rgb(0, 0, 0);stroke:none;color:rgb(251, 251, 254);stroke-width:1px;stroke-linecap:butt;stroke-linejoin:round;opacity:1;font-family:&quot;Anthropic Sans&quot;, -apple-system, BlinkMacSystemFont, &quot;Segoe UI&quot;, sans-serif;font-size:16px;font-weight:400;text-anchor:start;dominant-baseline:auto">
            <rect x="0.044" y="-0.337" width="0.274" height="0.124" style="fill:rgb(16,154,214);fill-rule:nonzero;;fill:rgb(16, 154, 214);stroke:none;color:rgb(251, 251, 254);stroke-width:1px;stroke-linecap:butt;stroke-linejoin:round;opacity:1;font-family:&quot;Anthropic Sans&quot;, -apple-system, BlinkMacSystemFont, &quot;Segoe UI&quot;, sans-serif;font-size:16px;font-weight:400;text-anchor:start;dominant-baseline:auto"/>
        </g>
        <g transform="matrix(20.9407,0,0,20.9407,121.441,49)" style="fill:rgb(0, 0, 0);stroke:none;color:rgb(251, 251, 254);stroke-width:1px;stroke-linecap:butt;stroke-linejoin:round;opacity:1;font-family:&quot;Anthropic Sans&quot;, -apple-system, BlinkMacSystemFont, &quot;Segoe UI&quot;, sans-serif;font-size:16px;font-weight:400;text-anchor:start;dominant-baseline:auto">
            <path d="M0.401,0.012C0.336,0.012 0.276,-0.004 0.22,-0.037C0.164,-0.069 0.119,-0.112 0.086,-0.167C0.053,-0.222 0.036,-0.281 0.036,-0.344C0.036,-0.407 0.053,-0.466 0.086,-0.521C0.119,-0.575 0.164,-0.618 0.22,-0.651C0.276,-0.683 0.336,-0.699 0.401,-0.699C0.466,-0.699 0.526,-0.683 0.582,-0.651C0.638,-0.618 0.683,-0.575 0.716,-0.521C0.749,-0.466 0.766,-0.407 0.766,-0.344C0.766,-0.281 0.749,-0.222 0.716,-0.167C0.683,-0.112 0.638,-0.069 0.582,-0.037C0.526,-0.004 0.466,0.012 0.401,0.012ZM0.401,-0.122C0.439,-0.122 0.474,-0.132 0.507,-0.153C0.54,-0.173 0.566,-0.2 0.585,-0.234C0.604,-0.268 0.614,-0.305 0.614,-0.344C0.614,-0.383 0.604,-0.42 0.585,-0.454C0.566,-0.487 0.54,-0.514 0.507,-0.535C0.474,-0.555 0.439,-0.565 0.401,-0.565C0.364,-0.565 0.329,-0.555 0.296,-0.535C0.263,-0.514 0.236,-0.487 0.217,-0.453C0.198,-0.419 0.188,-0.383 0.188,-0.344C0.188,-0.305 0.198,-0.268 0.217,-0.234C0.236,-0.2 0.263,-0.173 0.296,-0.153C0.329,-0.132 0.364,-0.122 0.401,-0.122Z" style="fill:rgb(16,154,214);fill-rule:nonzero;;fill:rgb(16, 154, 214);stroke:none;color:rgb(251, 251, 254);stroke-width:1px;stroke-linecap:butt;stroke-linejoin:round;opacity:1;font-family:&quot;Anthropic Sans&quot;, -apple-system, BlinkMacSystemFont, &quot;Segoe UI&quot;, sans-serif;font-size:16px;font-weight:400;text-anchor:start;dominant-baseline:auto"/>
        </g>
        <g transform="matrix(20.9407,0,0,20.9407,137.816,49)" style="fill:rgb(0, 0, 0);stroke:none;color:rgb(251, 251, 254);stroke-width:1px;stroke-linecap:butt;stroke-linejoin:round;opacity:1;font-family:&quot;Anthropic Sans&quot;, -apple-system, BlinkMacSystemFont, &quot;Segoe UI&quot;, sans-serif;font-size:16px;font-weight:400;text-anchor:start;dominant-baseline:auto">
            <path d="M0.071,-0.687L0.218,-0.687L0.55,-0.243L0.55,-0.687L0.697,-0.687L0.697,0L0.55,0L0.218,-0.444L0.218,0L0.071,0L0.071,-0.687Z" style="fill:rgb(16,154,214);fill-rule:nonzero;;fill:rgb(16, 154, 214);stroke:none;color:rgb(251, 251, 254);stroke-width:1px;stroke-linecap:butt;stroke-linejoin:round;opacity:1;font-family:&quot;Anthropic Sans&quot;, -apple-system, BlinkMacSystemFont, &quot;Segoe UI&quot;, sans-serif;font-size:16px;font-weight:400;text-anchor:start;dominant-baseline:auto"/>
        </g>
    </g>
    <g id="get-the" transform="matrix(0.808814,0,0,0.826975,13.1944,3.37585)" style="fill:rgb(0, 0, 0);stroke:none;color:rgb(251, 251, 254);stroke-width:1px;stroke-linecap:butt;stroke-linejoin:round;opacity:1;font-family:&quot;Anthropic Sans&quot;, -apple-system, BlinkMacSystemFont, &quot;Segoe UI&quot;, sans-serif;font-size:16px;font-weight:400;text-anchor:start;dominant-baseline:auto">
        <g transform="matrix(18.1486,0,0,18.1486,69,27)" style="fill:rgb(0, 0, 0);stroke:none;color:rgb(251, 251, 254);stroke-width:1px;stroke-linecap:butt;stroke-linejoin:round;opacity:1;font-family:&quot;Anthropic Sans&quot;, -apple-system, BlinkMacSystemFont, &quot;Segoe UI&quot;, sans-serif;font-size:16px;font-weight:400;text-anchor:start;dominant-baseline:auto">
            <path d="M0.385,-0.378L0.679,-0.378L0.679,-0.1C0.646,-0.065 0.604,-0.038 0.555,-0.018C0.505,0.002 0.455,0.012 0.405,0.012C0.34,0.012 0.28,-0.004 0.225,-0.037C0.169,-0.069 0.125,-0.112 0.092,-0.167C0.058,-0.222 0.042,-0.281 0.042,-0.344C0.042,-0.407 0.058,-0.466 0.092,-0.521C0.125,-0.576 0.169,-0.619 0.225,-0.651C0.28,-0.683 0.34,-0.699 0.405,-0.699C0.456,-0.699 0.506,-0.689 0.555,-0.669C0.604,-0.649 0.646,-0.622 0.679,-0.588L0.59,-0.505C0.569,-0.53 0.541,-0.549 0.507,-0.564C0.473,-0.578 0.439,-0.585 0.405,-0.585C0.363,-0.585 0.324,-0.574 0.288,-0.552C0.251,-0.53 0.222,-0.501 0.201,-0.464C0.18,-0.427 0.169,-0.387 0.169,-0.344C0.169,-0.301 0.18,-0.261 0.201,-0.224C0.222,-0.187 0.251,-0.157 0.288,-0.135C0.324,-0.113 0.363,-0.102 0.405,-0.102C0.431,-0.102 0.458,-0.106 0.485,-0.115C0.511,-0.124 0.536,-0.136 0.557,-0.152L0.557,-0.276L0.385,-0.276L0.385,-0.378Z" style="fill:rgb(16,154,214);fill-rule:nonzero;;fill:rgb(16, 154, 214);stroke:none;color:rgb(251, 251, 254);stroke-width:1px;stroke-linecap:butt;stroke-linejoin:round;opacity:1;font-family:&quot;Anthropic Sans&quot;, -apple-system, BlinkMacSystemFont, &quot;Segoe UI&quot;, sans-serif;font-size:16px;font-weight:400;text-anchor:start;dominant-baseline:auto"/>
        </g>
        <g transform="matrix(18.1486,0,0,18.1486,81.8855,27)" style="fill:rgb(0, 0, 0);stroke:none;color:rgb(251, 251, 254);stroke-width:1px;stroke-linecap:butt;stroke-linejoin:round;opacity:1;font-family:&quot;Anthropic Sans&quot;, -apple-system, BlinkMacSystemFont, &quot;Segoe UI&quot;, sans-serif;font-size:16px;font-weight:400;text-anchor:start;dominant-baseline:auto">
            <path d="M0.59,-0.573L0.198,-0.573L0.198,-0.407L0.553,-0.407L0.553,-0.293L0.198,-0.293L0.198,-0.114L0.59,-0.114L0.59,0L0.073,0L0.073,-0.687L0.59,-0.687L0.59,-0.573Z" style="fill:rgb(16,154,214);fill-rule:nonzero;;fill:rgb(16, 154, 214);stroke:none;color:rgb(251, 251, 254);stroke-width:1px;stroke-linecap:butt;stroke-linejoin:round;opacity:1;font-family:&quot;Anthropic Sans&quot;, -apple-system, BlinkMacSystemFont, &quot;Segoe UI&quot;, sans-serif;font-size:16px;font-weight:400;text-anchor:start;dominant-baseline:auto"/>
        </g>
        <g transform="matrix(18.1486,0,0,18.1486,93.2102,27)" style="fill:rgb(0, 0, 0);stroke:none;color:rgb(251, 251, 254);stroke-width:1px;stroke-linecap:butt;stroke-linejoin:round;opacity:1;font-family:&quot;Anthropic Sans&quot;, -apple-system, BlinkMacSystemFont, &quot;Segoe UI&quot;, sans-serif;font-size:16px;font-weight:400;text-anchor:start;dominant-baseline:auto">
            <path d="M0.257,-0.573L0.037,-0.573L0.037,-0.687L0.601,-0.687L0.601,-0.573L0.382,-0.573L0.382,0L0.257,0L0.257,-0.573Z" style="fill:rgb(16,154,214);fill-rule:nonzero;;fill:rgb(16, 154, 214);stroke:none;color:rgb(251, 251, 254);stroke-width:1px;stroke-linecap:butt;stroke-linejoin:round;opacity:1;font-family:&quot;Anthropic Sans&quot;, -apple-system, BlinkMacSystemFont, &quot;Segoe UI&quot;, sans-serif;font-size:16px;font-weight:400;text-anchor:start;dominant-baseline:auto"/>
        </g>
        <g transform="matrix(18.1486,0,0,18.1486,109.036,27)" style="fill:rgb(0, 0, 0);stroke:none;color:rgb(251, 251, 254);stroke-width:1px;stroke-linecap:butt;stroke-linejoin:round;opacity:1;font-family:&quot;Anthropic Sans&quot;, -apple-system, BlinkMacSystemFont, &quot;Segoe UI&quot;, sans-serif;font-size:16px;font-weight:400;text-anchor:start;dominant-baseline:auto">
            <path d="M0.257,-0.573L0.037,-0.573L0.037,-0.687L0.601,-0.687L0.601,-0.573L0.382,-0.573L0.382,0L0.257,0L0.257,-0.573Z" style="fill:rgb(16,154,214);fill-rule:nonzero;;fill:rgb(16, 154, 214);stroke:none;color:rgb(251, 251, 254);stroke-width:1px;stroke-linecap:butt;stroke-linejoin:round;opacity:1;font-family:&quot;Anthropic Sans&quot;, -apple-system, BlinkMacSystemFont, &quot;Segoe UI&quot;, sans-serif;font-size:16px;font-weight:400;text-anchor:start;dominant-baseline:auto"/>
        </g>
        <g transform="matrix(18.1486,0,0,18.1486,120.27,27)" style="fill:rgb(0, 0, 0);stroke:none;color:rgb(251, 251, 254);stroke-width:1px;stroke-linecap:butt;stroke-linejoin:round;opacity:1;font-family:&quot;Anthropic Sans&quot;, -apple-system, BlinkMacSystemFont, &quot;Segoe UI&quot;, sans-serif;font-size:16px;font-weight:400;text-anchor:start;dominant-baseline:auto">
            <path d="M0.541,-0.687L0.665,-0.687L0.665,0L0.541,0L0.541,-0.293L0.198,-0.293L0.198,0L0.073,0L0.073,-0.687L0.198,-0.687L0.198,-0.407L0.541,-0.407L0.541,-0.687Z" style="fill:rgb(16,154,214);fill-rule:nonzero;;fill:rgb(16, 154, 214);stroke:none;color:rgb(251, 251, 254);stroke-width:1px;stroke-linecap:butt;stroke-linejoin:round;opacity:1;font-family:&quot;Anthropic Sans&quot;, -apple-system, BlinkMacSystemFont, &quot;Segoe UI&quot;, sans-serif;font-size:16px;font-weight:400;text-anchor:start;dominant-baseline:auto"/>
        </g>
        <g transform="matrix(18.1486,0,0,18.1486,133.319,27)" style="fill:rgb(0, 0, 0);stroke:none;color:rgb(251, 251, 254);stroke-width:1px;stroke-linecap:butt;stroke-linejoin:round;opacity:1;font-family:&quot;Anthropic Sans&quot;, -apple-system, BlinkMacSystemFont, &quot;Segoe UI&quot;, sans-serif;font-size:16px;font-weight:400;text-anchor:start;dominant-baseline:auto">
            <path d="M0.59,-0.573L0.198,-0.573L0.198,-0.407L0.553,-0.407L0.553,-0.293L0.198,-0.293L0.198,-0.114L0.59,-0.114L0.59,0L0.073,0L0.073,-0.687L0.59,-0.687L0.59,-0.573Z" style="fill:rgb(16,154,214);fill-rule:nonzero;;fill:rgb(16, 154, 214);stroke:none;color:rgb(251, 251, 254);stroke-width:1px;stroke-linecap:butt;stroke-linejoin:round;opacity:1;font-family:&quot;Anthropic Sans&quot;, -apple-system, BlinkMacSystemFont, &quot;Segoe UI&quot;, sans-serif;font-size:16px;font-weight:400;text-anchor:start;dominant-baseline:auto"/>
        </g>
    </g>
    <g id="logo" transform="matrix(0.979167,0,0,0.979167,6.7,6.2)" style="fill:rgb(0, 0, 0);stroke:none;color:rgb(251, 251, 254);stroke-width:1px;stroke-linecap:butt;stroke-linejoin:round;opacity:1;font-family:&quot;Anthropic Sans&quot;, -apple-system, BlinkMacSystemFont, &quot;Segoe UI&quot;, sans-serif;font-size:16px;font-weight:400;text-anchor:start;dominant-baseline:auto">
        <defs>
            <linearGradient id="ca" x1="3.2173" y1="15" x2="44.7812" y2="15" gradientUnits="userSpaceOnUse"><stop offset="0" stop-color="#d93025"/><stop offset="1" stop-color="#ea4335"/></linearGradient>
            <linearGradient id="cb" x1="20.7219" y1="47.6791" x2="41.5039" y2="11.6837" gradientUnits="userSpaceOnUse"><stop offset="0" stop-color="#fcc934"/><stop offset="1" stop-color="#fbbc04"/></linearGradient>
            <linearGradient id="cc" x1="26.5981" y1="46.5015" x2="5.8161" y2="10.506" gradientUnits="userSpaceOnUse"><stop offset="0" stop-color="#1e8e3e"/><stop offset="1" stop-color="#34a853"/></linearGradient>
        </defs>
        <circle cx="24" cy="23.9947" r="12" fill="#fff" style="fill:rgb(255, 255, 255);stroke:none;color:rgb(251, 251, 254);stroke-width:1px;stroke-linecap:butt;stroke-linejoin:round;opacity:1;font-family:&quot;Anthropic Sans&quot;, -apple-system, BlinkMacSystemFont, &quot;Segoe UI&quot;, sans-serif;font-size:16px;font-weight:400;text-anchor:start;dominant-baseline:auto"/>
        <path d="M24,12H44.7812a23.9939,23.9939,0,0,0-41.5639.0029L13.6079,30l.0093-.0024A11.9852,11.9852,0,0,1,24,12Z" fill="url(#ca)" style="stroke:none;color:rgb(251, 251, 254);stroke-width:1px;stroke-linecap:butt;stroke-linejoin:round;opacity:1;font-family:&quot;Anthropic Sans&quot;, -apple-system, BlinkMacSystemFont, &quot;Segoe UI&quot;, sans-serif;font-size:16px;font-weight:400;text-anchor:start;dominant-baseline:auto"/>
        <circle cx="24" cy="24" r="9.5" fill="#1a73e8" style="fill:rgb(26, 115, 232);stroke:none;color:rgb(251, 251, 254);stroke-width:1px;stroke-linecap:butt;stroke-linejoin:round;opacity:1;font-family:&quot;Anthropic Sans&quot;, -apple-system, BlinkMacSystemFont, &quot;Segoe UI&quot;, sans-serif;font-size:16px;font-weight:400;text-anchor:start;dominant-baseline:auto"/>
        <path d="M34.3913,30.0029,24.0007,48A23.994,23.994,0,0,0,44.78,12.0031H23.9989l-.0025.0093A11.985,11.985,0,0,1,34.3913,30.0029Z" fill="url(#cb)" style="stroke:none;color:rgb(251, 251, 254);stroke-width:1px;stroke-linecap:butt;stroke-linejoin:round;opacity:1;font-family:&quot;Anthropic Sans&quot;, -apple-system, BlinkMacSystemFont, &quot;Segoe UI&quot;, sans-serif;font-size:16px;font-weight:400;text-anchor:start;dominant-baseline:auto"/>
        <path d="M13.6086,30.0031,3.218,12.006A23.994,23.994,0,0,0,24.0025,48L34.3931,30.0029l-.0067-.0068a11.9852,11.9852,0,0,1-20.7778.007Z" fill="url(#cc)" style="stroke:none;color:rgb(251, 251, 254);stroke-width:1px;stroke-linecap:butt;stroke-linejoin:round;opacity:1;font-family:&quot;Anthropic Sans&quot;, -apple-system, BlinkMacSystemFont, &quot;Segoe UI&quot;, sans-serif;font-size:16px;font-weight:400;text-anchor:start;dominant-baseline:auto"/>
    </g>
</svg>