<svg xmlns="http://www.w3.org/2000/svg" viewBox="0 0 24 24" fill="none" stroke="currentColor" stroke-linecap="round" stroke-linejoin="round"><path d="M9.499 10.499a4 4 0 1 0 8 0 4 4 0 1 0-8 0ZM.5 5.499a1.5 1.5 0 1 0 3 0 1.5 1.5 0 1 0-3 0ZM20.5 1.999a1.5 1.5 0 1 0 3 0 1.5 1.5 0 1 0-3 0ZM.5 21.999a1.5 1.5 0 1 0 3 0 1.5 1.5 0 1 0-3 0ZM11.999 21.999a1.5 1.5 0 1 0 3 0 1.5 1.5 0 1 0-3 0ZM3.06 20.938l7.62-7.601M16.333 7.676l4.605-4.616M3.35 6.149l6.472 2.775M20.562 14.028l-3.618-1.495M13.499 20.499v-6M20.5 14.499a1.5 1.5 0 1 0 3 0 1.5 1.5 0 1 0-3 0Z"/></svg>
